<?xml version="1.0" standalone="no"?>
<!DOCTYPE svg PUBLIC "-//W3C//DTD SVG 20010904//EN"
 "http://www.w3.org/TR/2001/REC-SVG-20010904/DTD/svg10.dtd">
<svg version="1.0" xmlns="http://www.w3.org/2000/svg"
 width="772.000000pt" height="1280.000000pt" viewBox="0 0 772.000000 1280.000000"
 preserveAspectRatio="xMidYMid meet">
<metadata>
Created by potrace 1.15, written by Peter Selinger 2001-2017
</metadata>
<g transform="translate(0.000000,1280.000000) scale(0.100000,-0.100000)"
fill="#000000" stroke="none">
<path d="M1950 12785 c-7 -8 -44 -24 -84 -36 -95 -28 -182 -74 -289 -150 -173
-123 -207 -184 -207 -367 l0 -104 -60 -64 c-33 -36 -67 -79 -76 -97 -21 -40
-34 -95 -27 -113 8 -21 53 -17 105 11 71 38 63 51 137 -254 32 -134 51 -186
100 -286 33 -67 72 -136 87 -154 26 -31 26 -32 8 -53 -25 -27 -147 -126 -204
-165 -50 -34 -230 -137 -393 -224 -59 -32 -120 -67 -135 -77 -15 -10 -58 -36
-97 -57 -99 -54 -154 -101 -175 -149 -9 -23 -25 -47 -33 -55 -18 -14 -52 -83
-98 -200 -57 -142 -88 -313 -114 -631 -29 -357 -29 -368 -10 -492 9 -64 16
-148 13 -186 -3 -61 -8 -77 -40 -124 -35 -51 -37 -59 -52 -197 -20 -180 -20
-252 -1 -298 26 -61 16 -125 -50 -348 -15 -49 -32 -156 -46 -275 -11 -107 -28
-229 -36 -270 -8 -41 -18 -145 -23 -230 -24 -419 -45 -559 -96 -636 -58 -87
-73 -250 -30 -313 l25 -36 -14 -115 c-20 -163 -19 -246 5 -319 11 -34 22 -85
25 -114 4 -29 11 -61 15 -72 5 -11 19 -46 30 -77 23 -63 76 -125 129 -153 18
-9 66 -43 106 -76 62 -50 79 -59 113 -59 38 0 40 2 46 38 3 20 6 64 6 98 0 59
-1 61 -38 85 -22 14 -41 37 -47 56 -15 46 -44 73 -77 73 -28 0 -28 1 -28 58 0
78 14 123 49 156 34 33 51 27 51 -17 0 -84 60 -233 105 -263 21 -13 31 -15 50
-6 34 16 39 47 20 143 -9 46 -20 160 -25 253 -11 188 -28 276 -71 353 -25 45
-29 64 -29 130 -1 49 -6 87 -15 103 -8 14 -14 41 -15 61 -1 92 84 416 177 679
112 316 164 491 213 710 55 242 83 342 104 359 7 6 19 39 26 72 12 54 11 67
-4 110 -23 63 -16 94 25 108 32 11 32 11 25 65 -3 30 -9 63 -12 73 -5 12 -4
15 3 8 15 -14 39 -95 58 -195 20 -99 14 -190 -18 -283 -28 -84 -31 -290 -5
-355 10 -23 18 -60 18 -80 0 -42 -32 -144 -74 -232 -58 -125 -77 -229 -86
-455 l-7 -210 -57 -218 c-30 -120 -65 -282 -76 -360 -23 -155 -20 -202 20
-330 11 -34 33 -163 49 -287 50 -380 69 -747 76 -1460 3 -267 8 -522 11 -568
6 -78 8 -84 32 -95 15 -6 33 -17 40 -24 7 -7 26 -13 42 -13 16 0 31 -4 34 -9
3 -4 24 -11 47 -15 l42 -7 -9 -72 c-16 -129 -9 -500 11 -612 26 -148 128 -514
255 -910 199 -625 224 -723 235 -920 6 -116 6 -121 -15 -140 -37 -33 -109
-140 -126 -186 -20 -56 -13 -121 21 -198 34 -74 68 -107 125 -120 25 -6 133
-11 240 -11 233 0 234 0 244 89 6 49 12 64 33 81 44 34 65 23 124 -65 73 -109
109 -128 245 -133 162 -6 261 29 333 119 61 75 65 93 69 336 6 330 0 364 -136
768 -85 255 -87 262 -86 355 0 53 5 106 12 120 15 32 35 64 44 70 4 3 12 17
18 30 5 14 18 37 28 51 29 44 67 108 134 226 34 61 121 203 192 315 207 324
245 408 276 608 12 75 44 191 61 220 5 8 13 24 18 35 5 12 16 27 26 35 9 7 26
32 38 54 19 36 22 57 22 166 0 86 -4 132 -13 149 -10 17 -16 101 -23 305 -5
154 -14 315 -20 356 -24 170 -29 217 -43 466 -29 507 -30 558 -6 664 11 52 23
151 27 220 l6 125 -61 185 c-37 110 -70 234 -82 305 -12 66 -32 158 -45 205
-49 175 -49 163 0 260 50 98 48 77 39 355 -6 196 -8 213 -30 251 -13 22 -24
48 -24 58 0 9 -13 43 -30 75 -31 62 -36 99 -60 391 -12 146 -11 397 1 475 6
33 14 114 18 180 5 66 13 136 20 155 6 19 11 56 11 82 0 26 5 50 10 53 10 6
80 -128 80 -153 0 -8 17 -53 39 -101 39 -88 55 -145 66 -238 9 -74 35 -103 89
-103 59 0 72 -18 90 -125 11 -59 64 -227 157 -490 209 -593 191 -526 184 -690
-4 -78 -13 -158 -21 -180 -7 -22 -21 -119 -30 -215 -8 -96 -21 -202 -28 -235
-10 -48 -10 -73 0 -125 7 -36 13 -90 13 -121 1 -70 21 -137 54 -180 14 -19 35
-58 47 -88 11 -30 31 -65 43 -79 12 -13 30 -33 40 -43 9 -10 26 -19 37 -19 35
0 33 -25 -9 -90 -61 -94 -67 -160 -16 -160 26 0 102 69 181 165 23 28 45 47
49 43 12 -11 -14 -65 -51 -105 -19 -20 -34 -42 -34 -49 0 -6 -6 -14 -14 -17
-31 -12 -24 -107 9 -107 8 0 15 4 15 9 0 5 27 26 60 46 120 73 250 237 250
314 0 39 28 139 51 187 30 58 23 88 -21 94 -63 9 -102 98 -121 275 -12 113 -5
252 18 328 8 29 39 99 69 157 73 141 172 371 189 439 8 31 21 118 30 194 17
157 29 211 61 281 23 49 23 49 33 24 5 -14 13 -43 17 -64 3 -22 17 -84 30
-139 13 -55 24 -116 24 -136 0 -19 -15 -98 -34 -175 -39 -157 -51 -235 -67
-414 -11 -132 -17 -167 -74 -430 -33 -155 -127 -782 -176 -1169 -27 -216 -23
-242 37 -255 41 -9 42 -10 48 -60 3 -28 6 -123 6 -211 0 -177 12 -284 32 -295
42 -24 99 -80 111 -110 27 -64 141 -739 174 -1022 16 -139 16 -152 -1 -250
-28 -161 -35 -242 -35 -398 -1 -274 12 -358 133 -850 57 -231 79 -339 89 -446
12 -114 21 -155 46 -215 42 -99 41 -149 -4 -279 -36 -102 -55 -146 -180 -425
l-68 -150 -4 -122 c-5 -116 -4 -125 22 -180 14 -32 40 -73 58 -91 41 -42 121
-67 191 -58 57 6 229 62 292 94 49 25 59 36 72 82 5 19 19 59 31 89 19 48 23
83 30 330 l9 276 31 65 c42 88 65 196 59 279 -4 57 -12 79 -56 155 -28 49 -61
118 -72 154 -12 36 -28 79 -36 94 -13 25 -13 59 -4 236 11 227 19 286 57 442
22 92 26 139 33 372 9 289 14 324 67 533 l36 140 7 415 c9 431 16 528 53 694
30 133 35 137 196 144 l121 5 0 -35 c0 -19 -11 -120 -25 -224 -13 -104 -35
-297 -49 -429 l-24 -240 30 -190 c36 -237 38 -396 7 -725 -17 -192 -23 -340
-29 -815 -4 -319 -11 -591 -15 -605 -4 -14 -22 -72 -40 -130 -18 -58 -41 -156
-50 -218 -21 -145 -37 -198 -91 -301 -37 -71 -44 -94 -44 -140 0 -65 24 -124
69 -170 18 -18 31 -42 31 -57 0 -14 11 -36 25 -50 25 -25 30 -26 131 -22 102
3 105 4 134 35 20 21 49 37 87 48 141 40 129 33 158 97 35 78 29 105 -41 165
-33 29 -60 62 -69 87 -15 38 -14 45 5 101 13 37 25 108 31 185 6 69 19 166 31
215 22 95 134 433 174 524 13 29 24 59 24 66 0 7 25 86 55 176 172 509 200
735 150 1214 -31 295 -30 360 10 624 48 314 126 766 151 872 l25 107 70 4 c82
4 104 21 101 72 -2 26 6 43 32 75 20 24 38 58 41 79 3 20 8 50 10 65 8 47 42
85 88 98 23 7 48 19 55 28 17 21 16 149 -3 184 -16 30 -12 45 21 95 30 44 42
107 54 280 9 123 15 157 37 206 35 80 41 194 19 352 -10 65 -16 146 -14 179
l3 60 45 13 c122 34 125 36 123 62 -1 14 -18 81 -38 150 -19 69 -45 179 -56
245 -11 66 -24 145 -30 175 -5 30 -16 98 -24 150 -8 52 -22 115 -31 139 -15
40 -16 74 -4 405 13 363 10 603 -9 663 -5 18 -19 108 -31 200 -12 93 -26 184
-31 203 -6 19 -14 145 -19 280 -9 251 -24 371 -53 426 -22 43 -99 119 -134
131 -15 6 -145 48 -288 93 -340 107 -385 129 -497 240 -78 77 -88 91 -88 123
0 65 20 136 40 142 27 9 160 152 176 191 8 18 14 49 14 68 0 19 9 63 20 98 11
35 20 91 20 126 0 35 7 88 16 117 14 49 13 73 -5 294 -12 132 -21 257 -21 279
0 36 -8 48 -85 130 -61 65 -95 93 -118 98 -17 3 -54 27 -82 52 -112 102 -201
116 -395 62 -152 -41 -197 -67 -311 -180 -82 -81 -104 -109 -143 -187 -122
-245 -186 -468 -186 -647 0 -92 17 -237 36 -303 13 -48 13 -56 -6 -105 -27
-72 -26 -90 10 -111 34 -20 59 -59 42 -65 -5 -1 -31 -17 -56 -33 -57 -38 -66
-67 -66 -210 l0 -105 -92 -28 c-51 -15 -149 -51 -218 -80 -69 -29 -151 -63
-183 -76 -96 -38 -143 -75 -172 -135 -38 -81 -74 -185 -94 -277 -11 -46 -31
-114 -46 -152 -19 -50 -30 -110 -41 -214 -11 -103 -25 -176 -51 -260 -34 -112
-36 -127 -43 -322 -6 -154 -12 -217 -25 -254 -12 -32 -20 -44 -25 -35 -16 29
-140 431 -140 452 0 12 9 33 20 47 27 34 25 56 -10 143 -16 42 -30 85 -30 96
0 13 11 26 30 36 38 20 38 42 0 99 -20 30 -42 48 -65 56 -19 6 -37 15 -40 20
-3 5 2 35 10 67 9 32 18 112 21 178 l6 120 -51 132 c-28 73 -75 186 -105 250
-30 65 -65 154 -79 198 -67 210 -134 376 -159 391 -5 3 -38 51 -74 107 -73
111 -157 200 -242 254 -83 53 -211 111 -294 133 -40 10 -89 25 -108 33 -20 9
-77 27 -128 41 -138 39 -196 70 -236 125 -18 26 -61 72 -95 102 -33 29 -61 56
-61 60 0 4 9 9 19 12 17 4 20 13 19 55 -2 64 23 108 52 92 31 -17 39 -12 46
28 3 20 13 53 23 73 15 33 20 37 64 41 26 3 50 8 53 11 13 13 -7 37 -31 37
-33 0 -32 7 7 47 27 27 30 37 22 51 -12 17 -50 21 -89 8 -20 -7 -20 -3 -20
131 0 113 -3 144 -18 170 -9 18 -27 92 -38 165 -26 173 -44 251 -74 316 -53
116 -219 234 -377 266 -42 9 -88 20 -103 26 -36 14 -50 13 -65 -5z m-1757
-6382 c-7 -2 -19 -2 -25 0 -7 3 -2 5 12 5 14 0 19 -2 13 -5z m1815 -1600 c4
-46 5 -83 1 -83 -8 0 -36 126 -44 197 -3 29 -2 65 2 80 6 24 9 18 20 -42 7
-38 17 -107 21 -152z m359 -1312 c130 -6 188 -12 199 -22 10 -8 31 -19 48 -24
40 -13 38 -33 -19 -150 -24 -49 -58 -135 -75 -190 -30 -96 -32 -111 -41 -340
-11 -298 -22 -387 -58 -467 -32 -72 -115 -180 -163 -213 -42 -29 -133 -142
-153 -188 -31 -74 -16 -167 63 -402 l47 -140 0 -155 c0 -101 -7 -188 -18 -250
-9 -52 -18 -108 -19 -124 -2 -16 -8 -31 -15 -33 -14 -5 -40 80 -77 250 -18 87
-38 146 -76 223 -91 189 -113 317 -113 649 1 126 8 301 18 410 10 105 18 242
18 305 1 108 -1 121 -36 220 -64 179 -113 403 -105 480 3 35 4 35 63 44 33 5
81 18 107 30 45 20 52 29 72 89 5 17 14 18 79 13 39 -3 154 -10 254 -15z
m3163 -1926 c0 -8 -4 -15 -10 -15 -5 0 -10 7 -10 15 0 8 5 15 10 15 6 0 10 -7
10 -15z m-240 -103 c0 -13 -12 -22 -22 -16 -10 6 -1 24 13 24 5 0 9 -4 9 -8z"/>
</g>
</svg>
